<?xml version="1.0" encoding="utf-8"?>
<!-- Generator: Adobe Illustrator 26.0.3, SVG Export Plug-In . SVG Version: 6.00 Build 0)  -->
<svg version="1.1"
	 id="svg8" xmlns:cc="http://creativecommons.org/ns#" xmlns:dc="http://purl.org/dc/elements/1.1/" xmlns:inkscape="http://www.inkscape.org/namespaces/inkscape" xmlns:rdf="http://www.w3.org/1999/02/22-rdf-syntax-ns#" xmlns:sodipodi="http://sodipodi.sourceforge.net/DTD/sodipodi-0.dtd" xmlns:svg="http://www.w3.org/2000/svg"
	 xmlns="http://www.w3.org/2000/svg" xmlns:xlink="http://www.w3.org/1999/xlink" x="0px" y="0px" viewBox="0 0 435 75"
	 style="enable-background:new 0 0 435 75;" xml:space="preserve">
<style type="text/css">
	.st0{fill:#FFFFFF;}
</style>
<sodipodi:namedview  bordercolor="#666666" borderopacity="1.0" id="base" inkscape:current-layer="layer1" inkscape:cx="-80.961545" inkscape:cy="-7.8570899" inkscape:document-units="mm" inkscape:pageopacity="0.0" inkscape:pageshadow="2" inkscape:window-height="1051" inkscape:window-maximized="1" inkscape:window-width="1842" inkscape:window-x="-9" inkscape:window-y="-9" inkscape:zoom="0.72800001" pagecolor="#ffffff" showgrid="false">
	<inkscape:grid  id="grid815" originx="-26.458332" originy="-158.74999" spacingx="5.2916667" spacingy="5.2916667" type="xygrid">
		</inkscape:grid>
</sodipodi:namedview>
<g id="layer1" transform="translate(-26.458333,-111.79166)" inkscape:groupmode="layer" inkscape:label="Ebene 1">
	<g id="g4580">
		<path id="path4520" inkscape:connector-curvature="0" sodipodi:nodetypes="ccccccccc" class="st0" d="M41.5,126.8h60v-15h-75l0,75
			h75v-15h-60V126.8z"/>
		<path id="path4542" inkscape:connector-curvature="0" class="st0" d="M146.5,111.8v75h75v-75h-60v15h45v45h-45v-60H146.5z"/>
		<path id="path4548" inkscape:connector-curvature="0" sodipodi:nodetypes="ccccccccccccc" class="st0" d="M386.5,111.8v75l15,0
			v-30l60,0v-15l-60,0v-15l45.1,0v15l14.9,0v-30H386.5z"/>
		<path id="path4556" inkscape:connector-curvature="0" class="st0" d="M176.5,141.8v15h15v-15H176.5z"/>
		<path id="path4560" inkscape:connector-curvature="0" class="st0" d="M341.5,111.8v15h-60v15h15v15h-30v-45H341.5z"/>
		<path id="path4562" inkscape:connector-curvature="0" class="st0" d="M311.5,141.8v15h15v15h-60v15h75v-45H311.5z"/>
	</g>
</g>
</svg>
