<?xml version="1.0" encoding="utf-8"?>
<!-- Generator: Adobe Illustrator 26.0.3, SVG Export Plug-In . SVG Version: 6.00 Build 0)  -->
<svg version="1.1"
	 id="svg8" inkscape:version="0.92.3 (2405546, 2018-03-11)" xmlns:cc="http://creativecommons.org/ns#" xmlns:dc="http://purl.org/dc/elements/1.1/" xmlns:inkscape="http://www.inkscape.org/namespaces/inkscape" xmlns:rdf="http://www.w3.org/1999/02/22-rdf-syntax-ns#" xmlns:sodipodi="http://sodipodi.sourceforge.net/DTD/sodipodi-0.dtd" xmlns:svg="http://www.w3.org/2000/svg"
	 xmlns="http://www.w3.org/2000/svg" xmlns:xlink="http://www.w3.org/1999/xlink" x="0px" y="0px" viewBox="0 0 435 125.3"
	 style="enable-background:new 0 0 435 125.3;" xml:space="preserve">
<style type="text/css">
	.st0{fill:#FFFFFF;}
</style>
<sodipodi:namedview  bordercolor="#666666" borderopacity="1.0" id="base" inkscape:current-layer="layer1" inkscape:cx="287.85713" inkscape:cy="59.240034" inkscape:document-units="mm" inkscape:pageopacity="0.0" inkscape:pageshadow="2" inkscape:window-height="1051" inkscape:window-maximized="1" inkscape:window-width="1842" inkscape:window-x="-9" inkscape:window-y="-9" inkscape:zoom="1.0295475" pagecolor="#ffffff" showgrid="false">
	<inkscape:grid  id="grid815" originx="-26.458332" originy="-140.9972" spacingx="5.2916667" spacingy="5.2916667" type="xygrid">
		</inkscape:grid>
</sodipodi:namedview>
<g id="layer1" transform="translate(-26.458333,-111.79166)" inkscape:groupmode="layer" inkscape:label="Ebene 1">
	<g id="g4580">
		<path id="path4520" inkscape:connector-curvature="0" sodipodi:nodetypes="ccccccccc" class="st0" d="M41.5,126.8h60v-15h-75l0,75
			h75v-15h-60V126.8z"/>
		<path id="path4542" inkscape:connector-curvature="0" class="st0" d="M146.5,111.8v75h75v-75h-60v15h45v45h-45v-60H146.5z"/>
		<path id="path4548" inkscape:connector-curvature="0" sodipodi:nodetypes="ccccccccccccc" class="st0" d="M386.5,111.8v75l15,0
			v-15v-15l60,0v-15l-60,0v-15l45,0v15l15,0v-30H386.5z"/>
		<path id="path4556" inkscape:connector-curvature="0" class="st0" d="M176.5,141.8v15h15v-15H176.5z"/>
		<path id="path4560" inkscape:connector-curvature="0" class="st0" d="M341.5,111.8v15h-60v15h15v15h-30v-45H341.5z"/>
		<path id="path4562" inkscape:connector-curvature="0" class="st0" d="M311.5,141.8v15h15v15h-60v15h75v-45H311.5z"/>
	</g>
</g>
<g>
	<path class="st0" d="M21.9,116.9c-1.8,0.8-3.8,1.3-6.1,1.3c-1.6,0-3.1-0.3-4.4-0.9c-1.3-0.6-2.5-1.4-3.4-2.4
		c-0.9-1-1.7-2.2-2.2-3.6c-0.5-1.4-0.8-2.9-0.8-4.6c0-1.8,0.3-3.4,0.8-4.9c0.5-1.5,1.3-2.8,2.3-3.9c1-1.1,2.2-2,3.7-2.6
		c1.4-0.6,3-1,4.8-1c2,0,3.7,0.3,5.3,0.9v2.3c-1.7-0.8-3.4-1.2-5.3-1.2c-1.5,0-2.8,0.3-4,0.8s-2.1,1.2-2.9,2.2
		c-0.8,0.9-1.4,2-1.8,3.3c-0.4,1.3-0.6,2.6-0.6,4.1c0,1.3,0.2,2.6,0.6,3.8c0.4,1.2,0.9,2.2,1.7,3.1c0.7,0.9,1.7,1.6,2.7,2.1
		s2.4,0.8,3.8,0.8c2.2,0,4.2-0.5,5.9-1.4V116.9z"/>
	<path class="st0" d="M27.5,97c-0.4,0-0.7-0.1-1-0.4S26,96,26,95.6c0-0.4,0.1-0.8,0.4-1c0.3-0.3,0.6-0.4,1-0.4c0.2,0,0.4,0,0.6,0.1
		c0.2,0.1,0.3,0.2,0.5,0.3c0.1,0.1,0.2,0.3,0.3,0.5c0.1,0.2,0.1,0.4,0.1,0.6c0,0.2,0,0.4-0.1,0.6c-0.1,0.2-0.2,0.3-0.3,0.5
		c-0.1,0.1-0.3,0.2-0.5,0.3C27.9,97,27.7,97,27.5,97z M26.5,117.7v-16.5h2.1v16.5H26.5z"/>
	<path class="st0" d="M41,117.5c-0.7,0.4-1.5,0.5-2.3,0.5c-2.7,0-4-1.5-4-4.6V103h-2.9v-1.8h2.9v-4.2l2.1-0.7v4.8H41v1.8h-4.3v10.1
		c0,1.1,0.2,1.9,0.5,2.4c0.4,0.5,1,0.7,1.9,0.7c0.6,0,1.3-0.2,1.9-0.6V117.5z"/>
	<path class="st0" d="M45.4,97c-0.4,0-0.7-0.1-1-0.4s-0.4-0.6-0.4-1.1c0-0.4,0.1-0.8,0.4-1c0.3-0.3,0.6-0.4,1-0.4
		c0.2,0,0.4,0,0.6,0.1c0.2,0.1,0.3,0.2,0.5,0.3c0.1,0.1,0.2,0.3,0.3,0.5c0.1,0.2,0.1,0.4,0.1,0.6c0,0.2,0,0.4-0.1,0.6
		c-0.1,0.2-0.2,0.3-0.3,0.5c-0.1,0.1-0.3,0.2-0.5,0.3C45.8,97,45.6,97,45.4,97z M44.4,117.7v-16.5h2.1v16.5H44.4z"/>
	<path class="st0" d="M53,115.9h10.2v1.8H49.8V117l10.4-14h-9.5v-1.8h12.7v0.6L53,115.9z"/>
	<path class="st0" d="M67.8,109.8c0,1,0.1,1.9,0.4,2.7s0.6,1.5,1.1,2s1.1,1,1.8,1.3c0.7,0.3,1.5,0.4,2.3,0.4c1.9,0,3.6-0.6,5.3-2v2
		c-1.6,1.1-3.5,1.7-5.7,1.7c-1.1,0-2.1-0.2-3-0.6s-1.7-0.9-2.3-1.7c-0.6-0.7-1.1-1.6-1.5-2.7s-0.5-2.3-0.5-3.7
		c0-1.2,0.2-2.4,0.6-3.4s0.9-2,1.6-2.7c0.7-0.8,1.5-1.4,2.4-1.8c0.9-0.4,1.9-0.7,3-0.7c1.1,0,2,0.2,2.8,0.6c0.8,0.4,1.5,0.9,2.1,1.6
		c0.6,0.7,1,1.5,1.3,2.5c0.3,1,0.4,2.1,0.4,3.3v1H67.8z M77.6,108c0-1.7-0.4-3.1-1.2-4s-1.9-1.4-3.3-1.4c-0.7,0-1.3,0.1-1.9,0.4
		c-0.6,0.2-1.1,0.6-1.6,1.1c-0.5,0.5-0.8,1-1.1,1.7c-0.3,0.7-0.5,1.4-0.6,2.3H77.6z"/>
	<path class="st0" d="M94.9,117.7v-9.5c0-3.7-1.4-5.6-4.1-5.6c-0.7,0-1.4,0.1-2,0.4c-0.6,0.3-1.1,0.7-1.6,1.2
		c-0.4,0.5-0.8,1.1-1,1.8c-0.3,0.7-0.4,1.4-0.4,2.2v9.4h-2.1v-16.5h2.1v2.9h0.1c1.2-2.2,3.1-3.3,5.5-3.3c1.8,0,3.2,0.6,4.1,1.8
		c0.9,1.2,1.4,2.9,1.4,5.1v10.1H94.9z"/>
	<path class="st0" d="M120.8,118.1c-1.7,0-3.2-0.3-4.5-0.9c-1.3-0.6-2.5-1.4-3.4-2.5c-0.9-1.1-1.6-2.3-2.1-3.7
		c-0.5-1.4-0.8-3-0.8-4.6c0-1.8,0.2-3.5,0.8-5c0.5-1.5,1.2-2.8,2.2-3.9c1-1.1,2.1-1.9,3.5-2.5c1.4-0.6,3-0.9,4.7-0.9
		c1.6,0,3.1,0.3,4.4,0.9c1.3,0.6,2.4,1.4,3.3,2.4c0.9,1,1.6,2.3,2.1,3.7c0.5,1.4,0.7,3,0.7,4.6c0,1.8-0.2,3.4-0.7,4.9
		c-0.5,1.5-1.2,2.8-2.1,3.9c-0.9,1.1-2.1,2-3.4,2.6C124.1,117.8,122.5,118.1,120.8,118.1z M120.9,96.2c-1.4,0-2.6,0.3-3.7,0.8
		c-1.1,0.5-2,1.3-2.7,2.2c-0.7,0.9-1.3,2-1.7,3.2c-0.4,1.2-0.6,2.5-0.6,3.9c0,1.3,0.2,2.6,0.5,3.8c0.3,1.2,0.9,2.3,1.6,3.2
		c0.7,0.9,1.6,1.7,2.7,2.2c1.1,0.5,2.3,0.8,3.8,0.8s2.7-0.2,3.8-0.7c1.1-0.5,2-1.2,2.7-2.1c0.7-0.9,1.3-1.9,1.7-3.2
		c0.4-1.2,0.6-2.6,0.6-4c0-1.4-0.2-2.6-0.5-3.9c-0.3-1.2-0.8-2.3-1.5-3.2c-0.7-0.9-1.6-1.6-2.7-2.2
		C123.7,96.4,122.4,96.2,120.9,96.2z"/>
	<path class="st0" d="M138.1,115v10.2H136v-24.1h2.1v3.2h0.1c0.6-1.1,1.4-2,2.5-2.6c1-0.6,2.2-0.9,3.5-0.9c1.1,0,2,0.2,2.8,0.6
		c0.8,0.4,1.5,0.9,2.1,1.6c0.6,0.7,1,1.5,1.3,2.5c0.3,1,0.5,2.1,0.5,3.4c0,1.4-0.2,2.6-0.5,3.7c-0.3,1.1-0.8,2.1-1.5,2.9
		s-1.4,1.4-2.3,1.9c-0.9,0.4-2,0.7-3.1,0.7C141,118.1,139.3,117.1,138.1,115L138.1,115z M138.1,110.8c0,0.8,0.1,1.5,0.4,2.1
		c0.3,0.7,0.6,1.2,1.1,1.7c0.5,0.5,1,0.9,1.6,1.2c0.6,0.3,1.3,0.4,2.1,0.4c0.8,0,1.6-0.2,2.2-0.5c0.7-0.3,1.2-0.8,1.7-1.5
		c0.5-0.6,0.8-1.4,1.1-2.3c0.3-0.9,0.4-1.9,0.4-3.1c0-1-0.1-1.8-0.4-2.6c-0.2-0.8-0.6-1.4-1-2c-0.4-0.5-1-1-1.6-1.3
		c-0.6-0.3-1.3-0.4-2.1-0.4c-0.9,0-1.6,0.2-2.3,0.5c-0.7,0.3-1.3,0.8-1.8,1.3c-0.5,0.5-0.9,1.2-1.1,1.9c-0.3,0.7-0.4,1.5-0.4,2.3
		V110.8z"/>
	<path class="st0" d="M155.9,109.8c0,1,0.1,1.9,0.4,2.7s0.6,1.5,1.1,2s1.1,1,1.8,1.3c0.7,0.3,1.5,0.4,2.3,0.4c1.9,0,3.6-0.6,5.3-2v2
		c-1.6,1.1-3.5,1.7-5.7,1.7c-1.1,0-2.1-0.2-3-0.6s-1.7-0.9-2.3-1.7c-0.6-0.7-1.1-1.6-1.5-2.7s-0.5-2.3-0.5-3.7
		c0-1.2,0.2-2.4,0.6-3.4s0.9-2,1.6-2.7c0.7-0.8,1.5-1.4,2.4-1.8c0.9-0.4,1.9-0.7,3-0.7c1.1,0,2,0.2,2.8,0.6c0.8,0.4,1.5,0.9,2.1,1.6
		c0.6,0.7,1,1.5,1.3,2.5c0.3,1,0.4,2.1,0.4,3.3v1H155.9z M165.7,108c0-1.7-0.4-3.1-1.2-4s-1.9-1.4-3.3-1.4c-0.7,0-1.3,0.1-1.9,0.4
		c-0.6,0.2-1.1,0.6-1.6,1.1c-0.5,0.5-0.8,1-1.1,1.7c-0.3,0.7-0.5,1.4-0.6,2.3H165.7z"/>
	<path class="st0" d="M183,117.7v-9.5c0-3.7-1.4-5.6-4.1-5.6c-0.7,0-1.4,0.1-2,0.4c-0.6,0.3-1.1,0.7-1.6,1.2c-0.4,0.5-0.8,1.1-1,1.8
		c-0.3,0.7-0.4,1.4-0.4,2.2v9.4h-2.1v-16.5h2.1v2.9h0.1c1.2-2.2,3.1-3.3,5.5-3.3c1.8,0,3.2,0.6,4.1,1.8c0.9,1.2,1.4,2.9,1.4,5.1
		v10.1H183z"/>
	<path class="st0" d="M198.5,114.3c0.4,0.3,0.8,0.6,1.3,0.8c0.5,0.2,0.9,0.4,1.4,0.6c0.5,0.2,1,0.3,1.5,0.4c0.5,0.1,1,0.1,1.4,0.1
		c1.8,0,3.1-0.3,3.9-1c0.9-0.7,1.3-1.6,1.3-2.9c0-0.6-0.1-1.1-0.3-1.6c-0.2-0.5-0.5-0.9-1-1.3c-0.4-0.4-1-0.8-1.6-1.2
		c-0.7-0.4-1.4-0.8-2.3-1.3c-1-0.5-1.8-1-2.5-1.5c-0.7-0.5-1.3-1-1.7-1.5c-0.4-0.5-0.8-1-1-1.6c-0.2-0.6-0.3-1.2-0.3-2
		c0-0.9,0.2-1.8,0.6-2.5s0.9-1.4,1.6-1.9c0.7-0.5,1.5-0.9,2.4-1.2c0.9-0.3,1.9-0.4,2.9-0.4c1.8,0,3.3,0.3,4.6,0.8v2.4
		c-1.4-0.8-3-1.2-4.8-1.2c-0.7,0-1.3,0.1-1.9,0.2c-0.6,0.2-1.1,0.4-1.6,0.7c-0.5,0.3-0.8,0.7-1.1,1.2c-0.3,0.5-0.4,1-0.4,1.7
		c0,0.6,0.1,1.1,0.3,1.6c0.2,0.4,0.5,0.8,0.9,1.2c0.4,0.4,0.9,0.8,1.5,1.2c0.6,0.4,1.4,0.8,2.3,1.3c1,0.5,1.8,1,2.5,1.5
		c0.7,0.5,1.3,1,1.8,1.5c0.5,0.5,0.8,1.1,1.1,1.7c0.2,0.6,0.4,1.3,0.4,2c0,1-0.2,1.9-0.6,2.7c-0.4,0.8-0.9,1.4-1.6,1.9
		c-0.7,0.5-1.5,0.9-2.4,1.1c-0.9,0.3-2,0.4-3.1,0.4c-0.4,0-0.8,0-1.3-0.1c-0.5-0.1-1-0.1-1.5-0.3c-0.5-0.1-1-0.2-1.5-0.4
		c-0.5-0.2-0.8-0.3-1.1-0.5V114.3z"/>
	<path class="st0" d="M227,117c-1.2,0.7-2.7,1.1-4.4,1.1c-1.2,0-2.2-0.2-3.2-0.6c-0.9-0.4-1.8-1-2.4-1.7c-0.7-0.7-1.2-1.6-1.5-2.6
		c-0.4-1-0.5-2.1-0.5-3.3c0-1.2,0.2-2.4,0.6-3.5c0.4-1.1,0.9-2,1.6-2.9c0.7-0.8,1.6-1.5,2.6-1.9c1-0.5,2.2-0.7,3.6-0.7
		c1.4,0,2.6,0.3,3.7,0.8v2.2c-1.2-0.8-2.5-1.2-3.9-1.2c-1,0-1.8,0.2-2.6,0.6c-0.8,0.4-1.4,0.9-1.9,1.5c-0.5,0.6-0.9,1.4-1.2,2.2
		c-0.3,0.9-0.4,1.8-0.4,2.7c0,0.9,0.1,1.7,0.3,2.5c0.2,0.8,0.6,1.5,1.1,2.1c0.5,0.6,1.1,1.1,1.8,1.5s1.6,0.5,2.6,0.5
		c1.5,0,2.9-0.5,4.2-1.4V117z"/>
	<path class="st0" d="M232,97c-0.4,0-0.7-0.1-1-0.4s-0.4-0.6-0.4-1.1c0-0.4,0.1-0.8,0.4-1c0.3-0.3,0.6-0.4,1-0.4
		c0.2,0,0.4,0,0.6,0.1c0.2,0.1,0.3,0.2,0.5,0.3c0.1,0.1,0.2,0.3,0.3,0.5c0.1,0.2,0.1,0.4,0.1,0.6c0,0.2,0,0.4-0.1,0.6
		c-0.1,0.2-0.2,0.3-0.3,0.5c-0.1,0.1-0.3,0.2-0.5,0.3C232.4,97,232.2,97,232,97z M231,117.7v-16.5h2.1v16.5H231z"/>
	<path class="st0" d="M239.4,109.8c0,1,0.1,1.9,0.4,2.7s0.6,1.5,1.1,2s1.1,1,1.8,1.3c0.7,0.3,1.5,0.4,2.3,0.4c1.9,0,3.6-0.6,5.3-2v2
		c-1.6,1.1-3.5,1.7-5.7,1.7c-1.1,0-2.1-0.2-3-0.6s-1.7-0.9-2.3-1.7c-0.6-0.7-1.1-1.6-1.5-2.7s-0.5-2.3-0.5-3.7
		c0-1.2,0.2-2.4,0.6-3.4s0.9-2,1.6-2.7c0.7-0.8,1.5-1.4,2.4-1.8c0.9-0.4,1.9-0.7,3-0.7c1.1,0,2,0.2,2.8,0.6c0.8,0.4,1.5,0.9,2.1,1.6
		c0.6,0.7,1,1.5,1.3,2.5c0.3,1,0.4,2.1,0.4,3.3v1H239.4z M249.1,108c0-1.7-0.4-3.1-1.2-4s-1.9-1.4-3.3-1.4c-0.7,0-1.3,0.1-1.9,0.4
		c-0.6,0.2-1.1,0.6-1.6,1.1c-0.5,0.5-0.8,1-1.1,1.7c-0.3,0.7-0.5,1.4-0.6,2.3H249.1z"/>
	<path class="st0" d="M266.5,117.7v-9.5c0-3.7-1.4-5.6-4.1-5.6c-0.7,0-1.4,0.1-2,0.4c-0.6,0.3-1.1,0.7-1.6,1.2
		c-0.4,0.5-0.8,1.1-1,1.8c-0.3,0.7-0.4,1.4-0.4,2.2v9.4h-2.1v-16.5h2.1v2.9h0.1c1.2-2.2,3.1-3.3,5.5-3.3c1.8,0,3.2,0.6,4.1,1.8
		c0.9,1.2,1.4,2.9,1.4,5.1v10.1H266.5z"/>
	<path class="st0" d="M284.5,117c-1.2,0.7-2.7,1.1-4.4,1.1c-1.2,0-2.2-0.2-3.2-0.6c-0.9-0.4-1.8-1-2.4-1.7c-0.7-0.7-1.2-1.6-1.5-2.6
		c-0.4-1-0.5-2.1-0.5-3.3c0-1.2,0.2-2.4,0.6-3.5c0.4-1.1,0.9-2,1.6-2.9c0.7-0.8,1.6-1.5,2.6-1.9c1-0.5,2.2-0.7,3.6-0.7
		c1.4,0,2.6,0.3,3.7,0.8v2.2c-1.2-0.8-2.5-1.2-3.9-1.2c-1,0-1.8,0.2-2.6,0.6c-0.8,0.4-1.4,0.9-1.9,1.5c-0.5,0.6-0.9,1.4-1.2,2.2
		c-0.3,0.9-0.4,1.8-0.4,2.7c0,0.9,0.1,1.7,0.3,2.5c0.2,0.8,0.6,1.5,1.1,2.1c0.5,0.6,1.1,1.1,1.8,1.5s1.6,0.5,2.6,0.5
		c1.5,0,2.9-0.5,4.2-1.4V117z"/>
	<path class="st0" d="M289.4,109.8c0,1,0.1,1.9,0.4,2.7s0.6,1.5,1.1,2s1.1,1,1.8,1.3c0.7,0.3,1.5,0.4,2.3,0.4c1.9,0,3.6-0.6,5.3-2v2
		c-1.6,1.1-3.5,1.7-5.7,1.7c-1.1,0-2.1-0.2-3-0.6s-1.7-0.9-2.3-1.7c-0.6-0.7-1.1-1.6-1.5-2.7s-0.5-2.3-0.5-3.7
		c0-1.2,0.2-2.4,0.6-3.4s0.9-2,1.6-2.7c0.7-0.8,1.5-1.4,2.4-1.8c0.9-0.4,1.9-0.7,3-0.7c1.1,0,2,0.2,2.8,0.6c0.8,0.4,1.5,0.9,2.1,1.6
		c0.6,0.7,1,1.5,1.3,2.5c0.3,1,0.4,2.1,0.4,3.3v1H289.4z M299.2,108c0-1.7-0.4-3.1-1.2-4s-1.9-1.4-3.3-1.4c-0.7,0-1.3,0.1-1.9,0.4
		c-0.6,0.2-1.1,0.6-1.6,1.1c-0.5,0.5-0.8,1-1.1,1.7c-0.3,0.7-0.5,1.4-0.6,2.3H299.2z"/>
	<path class="st0" d="M316.9,108.7v9h-2.1V94.6h6c1.2,0,2.3,0.2,3.2,0.5s1.7,0.7,2.4,1.3s1.1,1.3,1.5,2.1c0.3,0.8,0.5,1.8,0.5,2.8
		c0,1.1-0.2,2.1-0.6,3c-0.4,0.9-0.9,1.7-1.6,2.4c-0.7,0.7-1.6,1.2-2.6,1.5c-1,0.4-2.2,0.6-3.4,0.6H316.9z M316.9,96.6v10.2h3.1
		c2,0,3.5-0.5,4.5-1.4s1.5-2.2,1.5-3.9c0-3.3-1.9-4.9-5.7-4.9H316.9z"/>
	<path class="st0" d="M332.6,117.7V93.3h2.1v24.4H332.6z"/>
	<path class="st0" d="M349.5,117.7v-2.9h-0.1c-0.5,1.1-1.3,1.9-2.2,2.4c-0.9,0.6-2,0.9-3.1,0.9c-0.8,0-1.5-0.1-2.2-0.3
		c-0.6-0.2-1.2-0.5-1.6-1c-0.4-0.4-0.8-0.9-1-1.5c-0.2-0.6-0.4-1.2-0.4-1.9c0-1.5,0.5-2.7,1.4-3.6c0.9-0.9,2.3-1.5,4.2-1.7l5-0.7
		c0-3.2-1.2-4.8-3.7-4.8c-1.9,0-3.7,0.7-5.3,2.1v-2.3c0.3-0.2,0.7-0.5,1.2-0.7c0.4-0.2,0.9-0.4,1.4-0.5c0.5-0.1,1-0.3,1.5-0.3
		c0.5-0.1,1-0.1,1.5-0.1c1.8,0,3.2,0.5,4.2,1.5c0.9,1,1.4,2.6,1.4,4.6v10.7H349.5z M345.2,109.7c-0.7,0.1-1.4,0.2-1.9,0.4
		s-1,0.4-1.3,0.7c-0.3,0.3-0.6,0.6-0.8,1c-0.2,0.4-0.2,0.9-0.2,1.5c0,0.4,0.1,0.8,0.2,1.2c0.2,0.4,0.4,0.7,0.7,1
		c0.3,0.3,0.7,0.5,1.1,0.6c0.4,0.2,0.9,0.2,1.4,0.2c0.7,0,1.4-0.1,2-0.4s1.1-0.7,1.6-1.2c0.4-0.5,0.8-1.1,1-1.8
		c0.3-0.7,0.4-1.4,0.4-2.2v-1.6L345.2,109.7z"/>
	<path class="st0" d="M363.6,117.5c-0.7,0.4-1.5,0.5-2.3,0.5c-2.7,0-4-1.5-4-4.6V103h-2.9v-1.8h2.9v-4.2l2.1-0.7v4.8h4.3v1.8h-4.3
		v10.1c0,1.1,0.2,1.9,0.5,2.4c0.4,0.5,1,0.7,1.9,0.7c0.6,0,1.3-0.2,1.9-0.6V117.5z"/>
	<path class="st0" d="M374.7,95.2c-0.5-0.3-1.1-0.5-1.8-0.5c-1.9,0-2.9,1.3-2.9,3.8v2.6h4.1v1.8H370v14.7H368V103h-2.9v-1.8h2.9
		v-2.8c0-0.8,0.1-1.6,0.3-2.2c0.2-0.7,0.5-1.2,0.9-1.7c0.4-0.5,0.9-0.8,1.5-1.1c0.6-0.3,1.3-0.4,2.1-0.4c0.8,0,1.4,0.1,1.8,0.3V95.2
		z"/>
	<path class="st0" d="M383.5,118.1c-1.2,0-2.3-0.2-3.3-0.6c-1-0.4-1.8-1-2.5-1.7c-0.7-0.7-1.2-1.6-1.6-2.7c-0.4-1-0.5-2.2-0.5-3.5
		c0-1.4,0.2-2.6,0.6-3.7s0.9-2,1.7-2.8c0.7-0.8,1.6-1.3,2.6-1.7c1-0.4,2.1-0.6,3.4-0.6c1.2,0,2.3,0.2,3.2,0.6c1,0.4,1.8,1,2.4,1.7
		s1.2,1.6,1.5,2.7s0.5,2.3,0.5,3.6c0,1.3-0.2,2.5-0.6,3.5c-0.4,1.1-0.9,2-1.6,2.7s-1.5,1.4-2.5,1.8
		C385.8,117.9,384.7,118.1,383.5,118.1z M383.6,102.6c-0.9,0-1.7,0.2-2.4,0.5s-1.4,0.8-1.9,1.4c-0.5,0.6-0.9,1.3-1.2,2.2
		c-0.3,0.9-0.4,1.8-0.4,2.9c0,1,0.1,2,0.4,2.8c0.3,0.8,0.7,1.5,1.2,2.1c0.5,0.6,1.1,1,1.9,1.4c0.7,0.3,1.5,0.5,2.4,0.5
		c0.9,0,1.7-0.2,2.4-0.5c0.7-0.3,1.3-0.8,1.8-1.3c0.5-0.6,0.9-1.3,1.1-2.2c0.3-0.8,0.4-1.8,0.4-2.9c0-2.2-0.5-3.9-1.5-5.1
		C386.9,103.2,385.5,102.6,383.6,102.6z"/>
	<path class="st0" d="M403.8,103.3c-0.5-0.4-1.1-0.5-1.9-0.5c-0.5,0-1,0.1-1.4,0.3c-0.4,0.2-0.8,0.5-1.1,0.8
		c-0.3,0.4-0.6,0.8-0.8,1.2c-0.2,0.5-0.4,1-0.5,1.5c-0.1,0.5-0.2,1-0.3,1.5c-0.1,0.5-0.1,1-0.1,1.5v8.1h-2v-16.5h2v3.5h0.1
		c0.2-0.6,0.4-1.1,0.7-1.6c0.3-0.5,0.6-0.9,1-1.2c0.4-0.3,0.8-0.6,1.3-0.8c0.5-0.2,0.9-0.3,1.4-0.3c0.3,0,0.6,0,0.9,0.1
		c0.3,0,0.5,0.1,0.7,0.2V103.3z"/>
	<path class="st0" d="M427.5,117.7V108c0-1-0.1-1.8-0.2-2.5c-0.2-0.7-0.4-1.2-0.7-1.7c-0.3-0.4-0.7-0.7-1.2-0.9
		c-0.5-0.2-1.1-0.3-1.7-0.3c-0.6,0-1.2,0.1-1.7,0.4c-0.5,0.3-1,0.7-1.4,1.2c-0.4,0.5-0.7,1.1-1,1.8c-0.2,0.7-0.3,1.4-0.3,2.2v9.5
		h-2.1v-9.9c0-3.5-1.3-5.2-4-5.2c-0.6,0-1.2,0.1-1.7,0.4c-0.5,0.3-1,0.7-1.4,1.2c-0.4,0.5-0.7,1.1-0.9,1.8c-0.2,0.7-0.3,1.5-0.3,2.3
		v9.5h-2.1v-16.5h2.1v2.7h0.1c1.2-2,2.9-3.1,5.1-3.1c0.6,0,1.1,0.1,1.6,0.3c0.5,0.2,1,0.4,1.4,0.7c0.4,0.3,0.8,0.7,1.1,1.1
		c0.3,0.4,0.5,0.9,0.7,1.5c0.6-1.2,1.3-2.1,2.3-2.7c0.9-0.6,2-0.9,3.2-0.9c3.6,0,5.4,2.2,5.4,6.7v10.2H427.5z"/>
</g>
</svg>
