<?xml version="1.0" encoding="UTF-8" standalone="no"?>
<svg
   xmlns:dc="http://purl.org/dc/elements/1.1/"
   xmlns:cc="http://creativecommons.org/ns#"
   xmlns:rdf="http://www.w3.org/1999/02/22-rdf-syntax-ns#"
   xmlns:svg="http://www.w3.org/2000/svg"
   xmlns="http://www.w3.org/2000/svg"
   xmlns:sodipodi="http://sodipodi.sourceforge.net/DTD/sodipodi-0.dtd"
   xmlns:inkscape="http://www.inkscape.org/namespaces/inkscape"
   aria-hidden="true"
   focusable="false"
   data-prefix="fas"
   data-icon="envelope-open"
   class="svg-inline--fa fa-envelope-open fa-w-16"
   role="img"
   viewBox="0 0 512 512"
   version="1.1"
   id="svg1385"
   sodipodi:docname="key_envelope2.svg"
   inkscape:version="0.92.3 (2405546, 2018-03-11)">
  <metadata
     id="metadata1391">
    <rdf:RDF>
      <cc:Work
         rdf:about="">
        <dc:format>image/svg+xml</dc:format>
        <dc:type
           rdf:resource="http://purl.org/dc/dcmitype/StillImage" />
        <dc:title />
      </cc:Work>
    </rdf:RDF>
  </metadata>
  <defs
     id="defs1389">
    <mask
       maskUnits="userSpaceOnUse"
       id="mask837">
      <g
         id="g843">
        <rect
           y="-35.660194"
           x="-56.7603"
           height="621.29517"
           width="653.5105"
           id="rect839"
           style="opacity:1;vector-effect:none;fill:#ffffff;fill-opacity:1;stroke:none;stroke-width:7.55905533;stroke-linecap:square;stroke-linejoin:miter;stroke-miterlimit:4;stroke-dasharray:none;stroke-dashoffset:0;stroke-opacity:1;paint-order:markers fill stroke" />
        <path
           sodipodi:nodetypes="ssccccsscsssssccssssssss"
           style="fill:#090909;fill-opacity:1;stroke-width:0.57203388"
           id="path841"
           d="m 377.49154,217.83107 c 0,55.60284 -45.07513,100.6774 -100.67797,100.6774 -6.41822,0 -12.69343,-0.6075 -18.77816,-1.75558 l -13.73567,15.45293 c -2.60529,2.93097 -6.33965,4.60787 -10.26115,4.60773 h -21.29283 v 22.88136 c 0,7.58231 -6.1465,13.72881 -13.72881,13.72881 h -22.88136 l -5.42373,-37.8644 c -1.07512,-7.5057 -24.36622,-9.49401 -16.98305,-11.22035 l 32.47458,-7.59322 c 7.38317,-1.72633 1.43507,21.40312 -6.1356,20.98306 l -42.30508,-2.34732 c -3.6354,-0.20171 -21.33299,-15.81122 -18.75884,-18.38594 l 62.18335,-67.60708 c -3.27375,-9.92708 -5.05163,-20.5343 -5.05163,-31.55797 0,-55.60284 45.07457,-100.67739 100.67741,-100.67796 55.76701,-5.7e-4 100.67854,44.91095 100.67854,100.67853 z m -100.67797,-27.4582 c 0,15.16462 12.29301,27.45763 27.45763,27.45763 15.16462,0 27.45762,-12.29301 27.45762,-27.45763 0,-15.16461 -12.293,-27.45762 -27.45762,-27.45762 -15.16462,0 -27.45763,12.29301 -27.45763,27.45762 z"
           inkscape:connector-curvature="0" />
      </g>
    </mask>
  </defs>
  <sodipodi:namedview
     pagecolor="#ffffff"
     bordercolor="#666666"
     borderopacity="1"
     objecttolerance="10"
     gridtolerance="10"
     guidetolerance="10"
     inkscape:pageopacity="0"
     inkscape:pageshadow="2"
     inkscape:window-width="1842"
     inkscape:window-height="1051"
     id="namedview1387"
     showgrid="false"
     inkscape:zoom="0.65186406"
     inkscape:cx="256"
     inkscape:cy="256"
     inkscape:window-x="-9"
     inkscape:window-y="-9"
     inkscape:window-maximized="1"
     inkscape:current-layer="svg1385" />
  <path
     fill="currentColor"
     d="M512 464c0 26.51-21.49 48-48 48H48c-26.51 0-48-21.49-48-48V200.724a48 48 0 0 1 18.387-37.776c24.913-19.529 45.501-35.365 164.2-121.511C199.412 29.17 232.797-.347 256 .003c23.198-.354 56.596 29.172 73.413 41.433 118.687 86.137 139.303 101.995 164.2 121.512A48 48 0 0 1 512 200.724V464zm-65.666-196.605c-2.563-3.728-7.7-4.595-11.339-1.907-22.845 16.873-55.462 40.705-105.582 77.079-16.825 12.266-50.21 41.781-73.413 41.43-23.211.344-56.559-29.143-73.413-41.43-50.114-36.37-82.734-60.204-105.582-77.079-3.639-2.688-8.776-1.821-11.339 1.907l-9.072 13.196a7.998 7.998 0 0 0 1.839 10.967c22.887 16.899 55.454 40.69 105.303 76.868 20.274 14.781 56.524 47.813 92.264 47.573 35.724.242 71.961-32.771 92.263-47.573 49.85-36.179 82.418-59.97 105.303-76.868a7.998 7.998 0 0 0 1.839-10.967l-9.071-13.196z"
     id="path1383"
     style="fill:#ffffff;fill-opacity:1"
     mask="url(#mask837)" />
</svg>
