<svg id="Layer_1" data-name="Layer 1" xmlns="http://www.w3.org/2000/svg" viewBox="0 0 448 512"><defs><style>.cls-1{fill:#fff;}</style></defs><title>trash-alt-solid</title><path class="cls-1" d="M32,464a48,48,0,0,0,48,48H368a48,48,0,0,0,48-48h0V128H32ZM304,208a16,16,0,0,1,32,0V432a16,16,0,0,1-32,0Zm-96,0a16,16,0,0,1,32,0V432a16,16,0,0,1-32,0Zm-96,0a16,16,0,0,1,32,0V432a16,16,0,0,1-32,0ZM432,32H312l-9.4-18.7A24,24,0,0,0,281.1,0H166.8a23.72,23.72,0,0,0-21.4,13.3L136,32H16A16,16,0,0,0,0,48V80A16,16,0,0,0,16,96H432a16,16,0,0,0,16-16V48A16,16,0,0,0,432,32Z" transform="translate(0 0)"/></svg>